HIERARCHY
ROOT Hips
{
	OFFSET 0.0000 0.0000 0.0000
	CHANNELS 6 Xposition Yposition Zposition Zrotation Xrotation Yrotation
	JOINT Spine1
	{
		OFFSET -0.0137 5.0038 -0.0537
		CHANNELS 3 Zrotation Xrotation Yrotation
		JOINT Spine2
		{
			OFFSET -0.0000 7.1253 -0.0298
			CHANNELS 3 Zrotation Xrotation Yrotation
			JOINT Chest
			{
				OFFSET -0.0000 7.5501 -0.8160
				CHANNELS 3 Zrotation Xrotation Yrotation
				JOINT Neck1
				{
					OFFSET -0.1817 26.3113 -0.5533
					CHANNELS 3 Zrotation Xrotation Yrotation
					JOINT Neck2
					{
						OFFSET -0.0000 7.7094 2.3026
						CHANNELS 3 Zrotation Xrotation Yrotation
						JOINT Head
						{
							OFFSET -0.0000 6.1289 1.9537
							CHANNELS 3 Zrotation Xrotation Yrotation
							JOINT Jaw
							{
								OFFSET 0.0026 0.4756 3.0949
								CHANNELS 3 Zrotation Xrotation Yrotation
								End Site
								{
									OFFSET 0.0 1.0 0.0
								}
							}
							JOINT LeftEye
							{
								OFFSET 3.2064 5.3802 7.5869
								CHANNELS 3 Zrotation Xrotation Yrotation
								End Site
								{
									OFFSET 0.0 1.0 0.0
								}
							}
							JOINT RightEye
							{
								OFFSET -3.2224 5.3619 7.5582
								CHANNELS 3 Zrotation Xrotation Yrotation
								End Site
								{
									OFFSET 0.0 1.0 0.0
								}
							}
						}
					}
				}
				JOINT LeftShoulder
				{
					OFFSET 1.6217 23.2372 5.1134
					CHANNELS 3 Zrotation Xrotation Yrotation
					JOINT LeftArm
					{
						OFFSET 14.9198 0.0000 -5.5023
						CHANNELS 3 Zrotation Xrotation Yrotation
						JOINT LeftForeArm
						{
							OFFSET 28.7393 0.0000 -0.0026
							CHANNELS 3 Zrotation Xrotation Yrotation
							JOINT LeftHand
							{
								OFFSET 27.0940 -0.0000 0.0026
								CHANNELS 3 Zrotation Xrotation Yrotation
								JOINT LeftHandThumbEnd
								{
									OFFSET 12.2686 -3.2202 4.8331
									CHANNELS 3 Zrotation Xrotation Yrotation
									End Site
									{
										OFFSET 0.0 1.0 0.0
									}
								}
								JOINT LeftHandMiddleEnd
								{
									OFFSET 19.0120 -0.3129 -0.0340
									CHANNELS 3 Zrotation Xrotation Yrotation
									End Site
									{
										OFFSET 0.0 1.0 0.0
									}
								}
							}
						}
					}
				}
				JOINT RightShoulder
				{
					OFFSET -1.3801 23.1803 5.2142
					CHANNELS 3 Zrotation Xrotation Yrotation
					JOINT RightArm
					{
						OFFSET -15.0372 0.0000 -5.5456
						CHANNELS 3 Zrotation Xrotation Yrotation
						JOINT RightForeArm
						{
							OFFSET -28.7366 0.0000 -0.0026
							CHANNELS 3 Zrotation Xrotation Yrotation
							JOINT RightHand
							{
								OFFSET -27.1336 -0.0000 0.0026
								CHANNELS 3 Zrotation Xrotation Yrotation
								JOINT RightHandThumbEnd
								{
									OFFSET -12.2642 -3.2115 4.8040
									CHANNELS 3 Zrotation Xrotation Yrotation
									End Site
									{
										OFFSET 0.0 1.0 0.0
									}
								}
								JOINT RightHandMiddleEnd
								{
									OFFSET -19.0006 -0.3066 -0.0316
									CHANNELS 3 Zrotation Xrotation Yrotation
									End Site
									{
										OFFSET 0.0 1.0 0.0
									}
								}
							}
						}
					}
				}
			}
		}
	}
	JOINT LeftLeg
	{
		OFFSET 10.0432 -8.4345 2.5957
		CHANNELS 3 Zrotation Xrotation Yrotation
		JOINT LeftShin
		{
			OFFSET -0.0000 -43.2218 -0.8029
			CHANNELS 3 Zrotation Xrotation Yrotation
			JOINT LeftFoot
			{
				OFFSET 0.0000 -42.1551 -3.4815
				CHANNELS 3 Zrotation Xrotation Yrotation
				JOINT LeftToeBase
				{
					OFFSET 0.0000 -5.0595 13.2315
					CHANNELS 3 Zrotation Xrotation Yrotation
					End Site
					{
						OFFSET 0.0 1.0 0.0
					}
				}
			}
		}
	}
	JOINT RightLeg
	{
		OFFSET -10.0473 -8.2953 2.6203
		CHANNELS 3 Zrotation Xrotation Yrotation
		JOINT RightShin
		{
			OFFSET 0.0000 -43.3622 -0.8056
			CHANNELS 3 Zrotation Xrotation Yrotation
			JOINT RightFoot
			{
				OFFSET 0.0000 -42.1174 -3.4784
				CHANNELS 3 Zrotation Xrotation Yrotation
				JOINT RightToeBase
				{
					OFFSET -0.0000 -5.0796 13.2842
					CHANNELS 3 Zrotation Xrotation Yrotation
					End Site
					{
						OFFSET 0.0 1.0 0.0
					}
				}
			}
		}
	}
}
MOTION
Frames: 9
Frame Time: 0.033333
-33.2091 96.5464 634.4016 1.6544 -2.9846 10.3644 -2.3040 2.1731 -0.3323 -1.2418 -4.1230 -1.3998 -1.3478 11.8248 -4.4901 4.2571 -1.9473 0.8134 -1.0408 -3.4262 -3.4230 0.7696 -12.7855 -5.0608 0.0023 0.0265 0.0305 0.6720 -10.5352 -3.8096 -0.6601 -10.5555 3.8785 -3.6341 15.7644 -8.1439 -75.3367 10.6609 -3.4021 1.4254 0.4483 -130.5606 -0.4521 -14.1583 -2.5120 -21.8467 17.5917 23.4721 -83.3185 -0.6881 13.4403 6.8579 14.6534 6.4238 66.5569 6.2241 9.4469 1.0398 -0.1690 122.4720 16.9030 -3.8830 1.5859 22.2653 13.1878 -21.4695 73.8659 2.0583 -7.9878 -1.2253 28.4144 -8.7314 0.2526 7.7896 -0.3702 -2.9867 7.7181 7.2130 2.3814 -18.5891 -2.5174 -3.2709 -24.9549 -16.3945 0.2051 6.1196 -0.0562 5.2743 -5.6397 -16.6169 -1.3680 -4.3887 1.0624
-34.3940 96.6501 639.7829 1.9130 -1.4694 10.6119 -2.7203 1.3964 -0.4554 -1.3588 -4.3806 -1.7946 -1.1182 11.3606 -4.7456 4.6760 -3.0279 0.5937 -1.0971 -3.4670 -2.9600 1.1055 -11.8994 -5.0672 0.0091 0.0038 0.0633 0.6741 -10.5059 -3.7675 -0.6469 -10.5280 3.8974 -3.5324 15.3969 -8.6319 -75.2611 10.3319 -3.4342 1.2757 0.5150 -129.5696 -0.4141 -13.0176 -3.6147 -21.5816 16.8527 22.9731 -82.2298 -1.0563 12.4630 8.0779 14.3843 6.3610 65.6620 6.8277 8.6193 0.9216 0.1723 121.9195 16.3832 -0.0234 1.8863 22.1556 12.8268 -21.0255 72.5381 1.7645 -6.7568 1.0341 31.2876 -6.6659 0.2412 4.1277 -0.6608 -3.7233 16.5864 5.6792 2.3785 -21.8858 -2.4108 -2.7498 -24.1140 -16.5030 0.1612 4.7499 0.0026 6.0830 -3.4388 -16.2133 -1.3350 -5.0439 1.1040
-35.5990 97.0930 645.3005 1.9969 0.2408 10.3291 -2.7664 0.5822 -0.5609 -1.4187 -4.7203 -2.0402 -1.0597 10.6839 -4.9213 4.7940 -4.3168 0.6119 -1.2079 -3.5630 -2.4824 1.4746 -10.4228 -5.0356 0.0130 -0.0309 0.0932 0.6679 -10.4875 -3.7285 -0.6318 -10.5085 3.9116 -4.1239 14.7378 -8.9271 -74.6742 10.7194 -3.4485 0.9154 0.3721 -128.6707 -0.6879 -11.9965 -3.8258 -21.4805 16.1953 22.7098 -81.1382 -1.1857 11.8191 9.0749 14.0474 6.5920 64.9467 7.7472 7.8951 0.8768 0.2888 121.7256 16.0848 2.7662 1.0253 21.9517 12.4181 -20.6792 71.2890 1.5907 -6.1470 3.3898 32.1067 -4.3634 0.1931 3.1143 -0.9212 -4.9172 27.7139 3.9291 2.2143 -23.3132 -2.1816 -1.6011 -23.7117 -16.2241 0.1621 6.0413 0.0713 5.9731 0.1102 -15.2227 -1.3244 -5.8173 1.1276
-36.8906 97.5560 651.0834 1.5026 1.7194 9.5078 -2.3528 -0.0193 -0.6697 -1.3695 -5.0203 -2.1139 -0.7150 10.1277 -4.9126 4.5029 -5.8750 0.9143 -1.3939 -3.6721 -2.0661 1.7803 -8.7741 -4.8895 0.0125 -0.0792 0.0928 0.6637 -10.5151 -3.7335 -0.6284 -10.5465 3.9114 -4.9535 14.1416 -8.9158 -74.2858 11.2415 -3.6276 0.4225 0.1984 -127.5474 -1.0788 -11.4218 -3.4701 -21.2803 15.6371 22.4965 -79.9416 -1.0159 11.1792 9.6870 13.8678 7.2102 64.2199 8.2038 7.2572 0.8780 0.3988 121.5588 16.2759 4.6008 -0.3383 21.3251 11.8626 -20.3206 69.0624 1.1644 -6.0282 5.1169 31.1285 -3.0862 0.1490 5.1868 -0.9802 -6.2245 37.4645 2.7490 2.0177 -19.1281 -2.0143 0.2130 -23.9826 -15.5871 0.1754 10.1949 0.1139 4.6853 3.1763 -13.4065 -1.3616 -5.4796 1.0899
-38.2619 97.7776 657.0919 0.6469 2.6476 8.2758 -1.8366 -0.2394 -0.6490 -1.1980 -5.1603 -2.2179 -0.0665 9.7449 -4.6704 4.1555 -7.4019 1.3224 -1.5128 -3.7359 -1.7500 1.8886 -7.6231 -4.4749 0.0097 -0.1063 0.0683 0.6787 -10.5443 -3.7638 -0.6489 -10.5801 3.8923 -5.1429 14.0329 -8.6228 -74.7949 11.5410 -4.4541 0.0515 0.1101 -126.0013 -1.4483 -11.0783 -2.9572 -20.7743 14.9977 22.1209 -78.1457 -0.6269 10.2694 9.7130 13.7409 7.9988 63.7456 7.9972 7.0662 0.8675 0.4043 121.2496 16.2490 5.3375 -1.9259 20.4727 11.2844 -19.8916 66.3164 0.7698 -6.0396 5.4942 28.9119 -3.2443 0.2457 9.8586 -0.8783 -6.9460 43.8455 2.9612 2.0248 -11.0911 -1.9980 2.0961 -24.3471 -14.6828 0.1678 16.1859 0.1433 3.2021 2.7215 -11.3156 -1.4210 -4.3771 1.0535
-39.5389 97.6175 662.7431 -0.5666 3.1503 6.7656 -1.3323 -0.1600 -0.5559 -0.8930 -5.2799 -2.2356 0.7761 9.5929 -4.2594 3.8626 -8.4005 1.6162 -1.4433 -3.7874 -1.6126 1.9863 -6.8813 -4.1841 0.0110 -0.1031 0.0795 0.6889 -10.5125 -3.7407 -0.6568 -10.5384 3.8895 -4.8751 14.3635 -8.2132 -75.7692 11.6682 -6.2687 0.1482 0.0567 -124.1533 -1.7532 -10.7739 -2.5267 -19.7325 14.0320 21.0929 -74.7560 -0.0074 8.6814 9.7067 13.6346 8.9483 63.4726 6.9815 7.1822 0.8115 0.4448 120.7000 15.5123 5.1810 -3.7743 19.0587 10.4234 -19.2406 62.4546 0.5432 -6.2404 5.2912 25.2228 -4.0667 0.3212 17.3271 -0.7705 -8.4392 43.3641 2.3506 2.1452 -6.6142 -2.0102 4.1785 -24.3289 -13.9420 0.1591 22.9368 0.0046 1.8826 -1.0053 -8.7550 -1.4318 -2.2426 0.9912
-40.8756 96.7818 668.2703 -2.0204 3.0112 5.7155 -0.7170 0.2928 -0.5269 -0.5951 -5.0954 -2.1189 1.5876 9.5225 -3.8514 3.8249 -8.8912 1.6110 -1.3440 -3.8032 -1.6140 1.9186 -7.0719 -3.6832 0.0034 -0.0676 0.0555 0.7020 -10.5051 -3.7737 -0.6860 -10.5090 3.8790 -4.3892 14.8677 -7.7948 -76.3936 11.4158 -8.2331 0.1948 -0.1085 -122.2507 -1.8785 -10.2085 -1.9631 -18.7827 13.4191 20.2668 -71.8609 0.4877 7.3882 9.8714 13.6169 9.5323 63.1340 5.1505 7.6076 0.8366 -0.0033 119.6185 13.5671 5.7441 -4.6757 18.2229 9.8680 -18.6374 59.8863 0.2716 -6.1703 5.7642 20.3915 -4.3829 0.3289 26.9956 -0.7325 -8.8945 36.5225 2.0864 2.2166 -5.5347 -2.0461 6.3278 -22.9180 -13.6173 0.1514 28.7723 -0.1420 1.0992 -6.6546 -7.5906 -1.4530 -1.1947 0.9747
-42.1205 95.4524 673.6077 -3.6788 2.5563 4.9360 -0.0013 0.9321 -0.4581 -0.3227 -4.8162 -1.8497 2.4503 9.7570 -3.3378 3.6767 -9.2106 1.4912 -1.2036 -3.7639 -1.7030 1.9523 -8.0063 -3.5906 -0.0051 -0.0337 0.0393 0.7110 -10.4850 -3.7952 -0.7140 -10.4756 3.8739 -3.9604 15.5542 -7.2693 -76.6329 10.5232 -10.0050 0.1099 -0.2266 -120.4978 -1.4085 -9.2759 -1.5922 -18.1363 12.9838 19.4432 -69.6489 0.7306 6.3496 9.8909 13.6932 10.1137 63.1399 2.6997 8.0400 0.8639 -0.4168 118.0418 10.9609 7.5408 -5.6512 17.5199 9.4993 -18.1080 58.2184 -0.0506 -5.8422 6.9854 14.2915 -4.1831 0.2553 38.0969 -0.7704 -9.0807 25.0152 1.5994 2.1743 -5.8569 -2.0924 8.6590 -20.7161 -13.1412 0.0925 33.7084 -0.2966 0.4245 -12.9184 -7.2746 -1.4568 -0.3159 0.9441
-43.2745 94.1168 678.9445 -5.0634 1.9782 4.1531 0.6892 1.5650 -0.3069 -0.1061 -4.5552 -1.4203 3.0629 10.2779 -2.6655 3.2425 -9.3446 1.2926 -1.0334 -3.6469 -1.6339 2.1125 -9.6180 -3.9272 -0.0111 -0.0048 0.0438 0.7154 -10.4337 -3.7874 -0.7315 -10.4202 3.8822 -4.0038 16.2642 -6.5595 -76.3201 9.4973 -11.2955 0.0926 -0.2323 -119.6636 -0.2010 -8.1039 -1.7277 -17.6135 12.5445 18.5465 -67.6627 0.7912 5.3934 9.5149 13.8725 10.7959 63.3721 -0.0276 8.7175 0.9248 -0.5956 116.5041 8.0722 10.3622 -7.0120 16.9348 9.1609 -17.6153 56.7497 -0.4907 -5.4712 8.3191 7.4331 -3.7121 0.0962 48.6033 -0.8314 -8.4204 12.6482 3.3807 2.1454 -6.3279 -2.1817 10.6592 -17.8663 -12.4254 0.0245 37.2790 -0.4031 -0.3940 -18.7175 -7.4339 -1.4521 0.2799 0.9063
